<?xml version="1.0" encoding="UTF-8" standalone="no"?>
<svg
   viewBox="0 0 64 64"
   version="1.1"
   id="svg7"
   sodipodi:docname="ICON_FPMPANEL.svg"
   inkscape:version="1.1.1 (3bf5ae0d25, 2021-09-20)"
   xmlns:inkscape="http://www.inkscape.org/namespaces/inkscape"
   xmlns:sodipodi="http://sodipodi.sourceforge.net/DTD/sodipodi-0.dtd"
   xmlns="http://www.w3.org/2000/svg"
   xmlns:svg="http://www.w3.org/2000/svg"
   xmlns:rdf="http://www.w3.org/1999/02/22-rdf-syntax-ns#"
   xmlns:cc="http://creativecommons.org/ns#"
   xmlns:dc="http://purl.org/dc/elements/1.1/">
  <defs
     id="defs11" />
  <sodipodi:namedview
     id="namedview9"
     pagecolor="#ffffff"
     bordercolor="#666666"
     borderopacity="1.0"
     inkscape:pageshadow="2"
     inkscape:pageopacity="0.0"
     inkscape:pagecheckerboard="0"
     showgrid="false"
     inkscape:zoom="13.640625"
     inkscape:cx="37.498282"
     inkscape:cy="21.58992"
     inkscape:window-width="2560"
     inkscape:window-height="1361"
     inkscape:window-x="-9"
     inkscape:window-y="-9"
     inkscape:window-maximized="1"
     inkscape:current-layer="svg7" />
  <title>ICON_FPMPANEL</title>
  <metadata
     id="metadata828">
    <rdf:RDF>
      <cc:Work
         rdf:about="">
        <dc:title>ICON_FPMPANEL</dc:title>
      </cc:Work>
    </rdf:RDF>
  </metadata>
  <path
     d="m 22.007439,32.867756 -0.0073,-3.427108 c -7.04e-4,-0.35515 0.327966,-0.619519 0.674522,-0.542253 l 1.232109,0.273727 c 0.36589,0.08108 0.66595,0.341982 0.797614,0.692974 l 0.589376,1.62364 4.44197,1.333977 -1.437923,-5.030998 c -0.100482,-0.35411 0.166314,-0.7068 0.53359,-0.7068 h 1.389414 c 0.398462,0 0.769203,0.216034 0.966701,0.565086 l 3.776714,6.718045 3.717809,1.094903 c 0.550916,0.162848 1.063718,0.433109 1.514152,0.793456 l 1.191916,0.952841 c 0.835035,0.665255 0.627142,1.985372 -0.370742,2.366508 -1.427527,0.540521 -2.986721,0.623679 -4.462759,0.239077 L 26.215425,37.126088 c -0.384602,-0.100482 -0.734554,-0.301444 -1.01521,-0.585564 l -2.871134,-2.89317 C 22.123615,33.439461 22.008051,33.158807 22.00743,32.867756 Z M 43.06512,42.60752 c 0.613284,0 1.10876,0.495476 1.10876,1.10876 0,0.613282 -0.495476,1.10876 -1.10876,1.10876 H 23.107441 c -0.612243,0 -1.10876,-0.495478 -1.10876,-1.10876 0,-0.613284 0.496517,-1.10876 1.10876,-1.10876 z M 28.65124,39.835621 c 0,0.613281 -0.495476,1.10876 -1.108758,1.10876 -0.613284,0 -1.10876,-0.495479 -1.10876,-1.10876 0,-0.613285 0.495476,-1.108761 1.10876,-1.108761 0.613282,0 1.108758,0.495476 1.108758,1.108761 z M 29.76,40.39 c 0,-0.613282 0.495478,-1.108761 1.10876,-1.108761 0.613284,0 1.10876,0.495479 1.10876,1.108761 0,0.613284 -0.495476,1.10876 -1.10876,1.10876 -0.613282,0 -1.10876,-0.495476 -1.10876,-1.10876 z"
     id="path2"
     style="stroke-width:0.0346488" />
  <text
     xml:space="preserve"
     style="font-style:normal;font-weight:normal;font-size:16.9117px;line-height:1.25;font-family:sans-serif;letter-spacing:0px;word-spacing:0px;fill:#000000;fill-opacity:1;stroke:none;stroke-width:0.422792"
     x="14.462976"
     y="24.925545"
     id="text11868"><tspan
       sodipodi:role="line"
       id="tspan11866"
       x="14.462976"
       y="24.925545"
       style="font-style:normal;font-variant:normal;font-weight:bold;font-stretch:normal;font-family:'Segoe UI';-inkscape-font-specification:'Segoe UI Bold';stroke-width:0.422792">FPM</tspan></text>
</svg>
